name C:\Users\u0101727\Documents\MyRepositories\upper-imu-dc\Results\main_mocap_tracking\Case_10\FLX01_linearAccelerations_groundFrame.mot
datacolumns 4
datarows 94
range 2.01000000 2.94000000
endheader 
time	radius_imu_x	radius_imu_y	radius_imu_z	
          2.01000000	          0.03990268	          8.77852382	         -0.95704382	
          2.02000000	          0.15638046	          8.66257258	         -1.17767084	
          2.03000000	          0.22823851	          8.59507748	         -1.28432687	
          2.04000000	          0.25047169	          8.58678672	         -1.26534344	
          2.05000000	          0.22780106	          8.63542125	         -1.14290331	
          2.06000000	          0.17412832	          8.72506087	         -0.96548526	
          2.07000000	          0.10745376	          8.83184501	         -0.78757714	
          2.08000000	          0.04182509	          8.93427025	         -0.64695766	
          2.09000000	         -0.02025614	          9.02275905	         -0.55054306	
          2.10000000	         -0.08848213	          9.10135979	         -0.47785665	
          2.11000000	         -0.17371778	          9.17837191	         -0.40330228	
          2.12000000	         -0.27262614	          9.25334311	         -0.32135010	
          2.13000000	         -0.36249713	          9.31285068	         -0.25361938	
          2.14000000	         -0.41048741	          9.33832890	         -0.23538981	
          2.15000000	         -0.38948622	          9.31865458	         -0.29474587	
          2.16000000	         -0.29246742	          9.25920063	         -0.43481544	
          2.17000000	         -0.14016982	          9.18288579	         -0.62416627	
          2.18000000	          0.02284041	          9.12220952	         -0.80192495	
          2.19000000	          0.14495932	          9.10566559	         -0.90146051	
          2.20000000	          0.18753390	          9.14700482	         -0.88041745	
          2.21000000	          0.13466881	          9.24389576	         -0.73574090	
          2.22000000	         -0.00904746	          9.38358241	         -0.49718946	
          2.23000000	         -0.22542730	          9.54917219	         -0.20982995	
          2.24000000	         -0.48876569	          9.72356725	          0.08268534	
          2.25000000	         -0.77024242	          9.89126300	          0.34829210	
          2.26000000	         -1.04149099	         10.03886956	          0.56965927	
          2.27000000	         -1.27764921	         10.15494138	          0.74242713	
          2.28000000	         -1.45925162	         10.22963705	          0.87098053	
          2.29000000	         -1.57263553	         10.25472570	          0.96360876	
          2.30000000	         -1.60866478	         10.22361004	          1.02750280	
          2.31000000	         -1.56052114	         10.13102335	          1.06408559	
          2.32000000	         -1.42221895	          9.97302225	          1.06609649	
          2.33000000	         -1.18933684	          9.74842254	          1.01819042	
          2.34000000	         -0.86253147	          9.46214349	          0.90232897	
          2.35000000	         -0.45313777	          9.12936691	          0.70782033	
          2.36000000	          0.01138339	          8.77786719	          0.44329643	
          2.37000000	          0.48550618	          8.44576679	          0.14501858	
          2.38000000	          0.91163581	          8.17357959	         -0.12683044	
          2.39000000	          1.23599366	          7.99281760	         -0.30908891	
          2.40000000	          1.42604267	          7.91765192	         -0.36357908	
          2.41000000	          1.47680244	          7.94466065	         -0.29163948	
          2.42000000	          1.40537495	          8.05826844	         -0.12807591	
          2.43000000	          1.24235458	          8.23641783	          0.07567135	
          2.44000000	          1.02444499	          8.45447016	          0.26841541	
          2.45000000	          0.78766563	          8.68807945	          0.41115956	
          2.46000000	          0.56144338	          8.91550594	          0.48226601	
          2.47000000	          0.36536266	          9.11903563	          0.47634469	
          2.48000000	          0.20945993	          9.28549755	          0.39971729	
          2.49000000	          0.09589824	          9.40732769	          0.26611611	
          2.50000000	          0.02096625	          9.48404640	          0.09387757	
          2.51000000	         -0.02246853	          9.52235319	         -0.09621119	
          2.52000000	         -0.04321736	          9.53416874	         -0.28326602	
          2.53000000	         -0.05034452	          9.53287274	         -0.44893762	
          2.54000000	         -0.05180364	          9.52953430	         -0.57963674	
          2.55000000	         -0.05308743	          9.53080394	         -0.66772915	
          2.56000000	         -0.05622398	          9.53902457	         -0.71144571	
          2.57000000	         -0.05965277	          9.55398523	         -0.71371501	
          2.58000000	         -0.05928444	          9.57480046	         -0.68066696	
          2.59000000	         -0.05061368	          9.60046522	         -0.62058751	
          2.60000000	         -0.03129440	          9.62893627	         -0.54330440	
          2.61000000	         -0.00298722	          9.65597067	         -0.45935102	
          2.62000000	          0.02881776	          9.67514988	         -0.37862753	
          2.63000000	          0.05708098	          9.67947154	         -0.30895311	
          2.64000000	          0.07615086	          9.66369959	         -0.25505276	
          2.65000000	          0.08378655	          9.62634343	         -0.21826830	
          2.66000000	          0.08176898	          9.57055770	         -0.19695215	
          2.67000000	          0.07520950	          9.50382353	         -0.18718623	
          2.68000000	          0.07051600	          9.43661105	         -0.18343181	
          2.69000000	          0.07236802	          9.38039156	         -0.17909249	
          2.70000000	          0.08126525	          9.34525739	         -0.16738476	
          2.71000000	          0.09328856	          9.33749150	         -0.14272359	
          2.72000000	          0.10216179	          9.35766477	         -0.10229964	
          2.73000000	          0.10222060	          9.40014097	         -0.04710867	
          2.74000000	          0.09054026	          9.45466826	          0.01826473	
          2.75000000	          0.06742489	          9.50971722	          0.08714646	
          2.76000000	          0.03580867	          9.55610542	          0.15280030	
          2.77000000	          0.00050160	          9.58912405	          0.20991794	
          2.78000000	         -0.03246998	          9.60815487	          0.25490147	
          2.79000000	         -0.05684066	          9.61437478	          0.28523316	
          2.80000000	         -0.06758656	          9.60850031	          0.29893642	
          2.81000000	         -0.06243154	          9.59033233	          0.29490097	
          2.82000000	         -0.04262438	          9.56020565	          0.27396746	
          2.83000000	         -0.01236408	          9.52078700	          0.23983636	
          2.84000000	          0.02315444	          9.47730087	          0.19874096	
          2.85000000	          0.06019470	          9.43568758	          0.15777460	
          2.86000000	          0.09804215	          9.40010164	          0.12290300	
          2.87000000	          0.13865513	          9.37171527	          0.09793033	
          2.88000000	          0.18470241	          9.34945733	          0.08476442	
          2.89000000	          0.23756042	          9.33163456	          0.08420014	
          2.90000000	          0.29664355	          9.31711186	          0.09634289	
          2.91000000	          0.36018936	          9.30564937	          0.12057355	
          2.92000000	          0.42667206	          9.29783772	          0.15551755	
          2.93000000	          0.49579711	          9.29513798	          0.19936978	
          2.94000000	          0.56852463	          9.29997989	          0.25043821	
